<svg width="14" height="14" viewBox="0 0 14 14" fill="none" xmlns="http://www.w3.org/2000/svg">
<path fill-rule="evenodd" clip-rule="evenodd" d="M13.5701 0.429975C13.9769 0.836771 13.9769 1.49632 13.5701 1.90311L1.90348 13.5698C1.49668 13.9766 0.837137 13.9766 0.430341 13.5698C0.0235451 13.163 0.0235451 12.5034 0.430341 12.0966L12.097 0.429975C12.5038 0.0231789 13.1634 0.0231789 13.5701 0.429975Z" fill="#FAFAFA"/>
<path fill-rule="evenodd" clip-rule="evenodd" d="M0.430341 0.429975C0.837137 0.0231789 1.49668 0.0231789 1.90348 0.429975L13.5701 12.0966C13.9769 12.5034 13.9769 13.163 13.5701 13.5698C13.1634 13.9766 12.5038 13.9766 12.097 13.5698L0.430341 1.90311C0.0235451 1.49632 0.0235451 0.836771 0.430341 0.429975Z" fill="#FAFAFA"/>
</svg>
