<svg width="30" height="30" viewBox="0 0 30 30" fill="none" xmlns="http://www.w3.org/2000/svg">
<path fill-rule="evenodd" clip-rule="evenodd" d="M0.666626 15C0.666626 7.08388 7.08388 0.666626 15 0.666626C22.916 0.666626 29.3333 7.08388 29.3333 15C29.3333 22.916 22.916 29.3333 15 29.3333C7.08388 29.3333 0.666626 22.916 0.666626 15ZM13.6667 20.3333C13.6667 19.597 14.261 19 14.994 19H15.006C15.739 19 16.3333 19.597 16.3333 20.3333C16.3333 21.0697 15.739 21.6667 15.006 21.6667H14.994C14.261 21.6667 13.6667 21.0697 13.6667 20.3333ZM13.6667 15C13.6667 15.7364 14.2636 16.3333 15 16.3333C15.7364 16.3333 16.3333 15.7364 16.3333 15V9.66667C16.3333 8.93029 15.7364 8.33333 15 8.33333C14.2636 8.33333 13.6667 8.93029 13.6667 9.66667L13.6667 15Z" fill="#FAFAFA"/>
</svg>
